<?xml version="1.0" standalone="no"?>
<!DOCTYPE svg PUBLIC "-//W3C//DTD SVG 20010904//EN"
 "http://www.w3.org/TR/2001/REC-SVG-20010904/DTD/svg10.dtd">
<svg version="1.0" xmlns="http://www.w3.org/2000/svg"
 width="697.000000pt" height="193.000000pt" viewBox="0 0 697.000000 193.000000"
 preserveAspectRatio="xMidYMid meet">

<g transform="translate(0.000000,193.000000) scale(0.100000,-0.100000)"
fill="#000000" stroke="none">
<path d="M0 965 l0 -965 3485 0 3485 0 0 965 0 965 -3485 0 -3485 0 0 -965z
m1149 491 c13 -12 15 -32 13 -99 -3 -83 -4 -85 -30 -92 -15 -4 -135 -6 -267
-5 -132 1 -248 1 -258 1 -16 -1 -17 -10 -15 -83 l3 -83 133 -2 c172 -3 184
-10 180 -97 l-3 -61 -147 -7 c-81 -3 -152 -9 -158 -13 -11 -6 -13 -138 -3
-175 3 -13 42 -15 287 -12 l284 3 9 -28 c11 -31 -5 -166 -22 -182 -11 -11
-724 -19 -741 -8 -7 4 -14 114 -19 294 -4 158 -9 313 -10 343 -1 30 -3 86 -3
124 l-2 68 -29 -4 c-34 -5 -41 8 -41 79 l0 43 408 3 c224 1 409 3 411 5 3 1
12 -4 20 -12z m1794 -76 c4 -47 6 -255 5 -462 -3 -369 -3 -377 17 -375 11 1
21 -5 23 -15 3 -17 -9 -18 -157 -18 -130 0 -161 3 -161 14 0 7 -9 16 -20 19
-15 4 -20 14 -20 36 0 26 4 31 24 31 13 0 38 3 55 6 l31 7 0 138 c0 106 3 138
13 137 6 -2 12 4 12 12 0 8 -6 14 -12 12 -10 -1 -13 58 -13 273 l0 276 98 -3
97 -3 8 -85z m3342 80 c139 -14 197 -38 252 -108 49 -62 67 -123 60 -203 -11
-125 -100 -243 -209 -278 -42 -14 -44 -17 -24 -40 8 -9 61 -85 119 -168 l106
-153 -112 0 -112 1 -30 42 c-17 23 -62 90 -99 150 -44 69 -76 109 -90 113 -12
3 -53 4 -91 2 l-70 -3 -3 -146 -3 -146 -61 -7 c-93 -9 -108 -8 -108 10 0 9 -9
18 -20 21 -20 5 -20 14 -20 404 l0 399 -30 0 c-30 0 -30 1 -30 55 l0 54 123 4
c285 7 348 6 452 -3z m-2062 -14 c14 -11 17 -29 17 -98 l0 -85 -166 -7 c-92
-3 -170 -9 -174 -11 -5 -3 -6 -167 -3 -365 3 -292 2 -361 -9 -364 -7 -3 -41
-7 -75 -11 -56 -5 -65 -3 -85 17 -23 23 -23 24 -26 375 l-4 353 -179 0 c-152
0 -179 2 -179 15 0 8 -6 15 -13 15 -21 0 -11 151 11 168 24 18 860 17 885 -2z
m852 -1 c83 -22 147 -60 218 -129 110 -108 161 -259 137 -400 -19 -105 -29
-134 -50 -141 -11 -4 -20 -13 -20 -20 0 -19 -105 -131 -154 -164 -147 -99
-315 -112 -466 -36 -172 87 -270 251 -270 452 l0 64 82 -2 c72 -2 82 0 89 17
7 21 3 34 -12 34 -5 0 -8 -3 -8 -7 4 -28 -4 -31 -66 -29 -36 1 -67 5 -71 8
-11 11 78 168 123 218 110 122 303 178 468 135z m-3044 -5 c128 -24 262 -130
319 -252 108 -230 10 -519 -213 -628 -87 -42 -143 -50 -352 -50 -145 0 -185 3
-194 14 -9 10 -13 122 -14 400 l-2 386 -22 0 c-13 0 -23 5 -23 10 0 6 -7 10
-15 10 -11 0 -15 13 -15 54 l0 55 43 4 c95 8 438 6 488 -3z"/>
<path d="M353 1423 c-7 -2 -13 -17 -13 -33 l0 -27 235 -2 c207 -2 235 0 235
13 0 14 19 16 125 16 104 0 125 2 125 15 0 13 -37 15 -267 17 -148 1 -290 2
-318 3 -29 0 -57 -6 -67 -14 -15 -12 -18 -12 -24 3 -6 17 -10 18 -31 9z m150
-30 c-13 -2 -33 -2 -45 0 -13 2 -3 4 22 4 25 0 35 -2 23 -4z"/>
<path d="M450 1249 c0 -11 5 -17 10 -14 6 3 10 13 10 21 0 8 -4 14 -10 14 -5
0 -10 -9 -10 -21z"/>
<path d="M680 1069 c0 -5 -28 -9 -62 -9 l-63 0 0 -30 c0 -30 1 -30 55 -30 43
0 59 -4 73 -20 9 -11 23 -20 30 -20 7 0 29 9 50 20 20 11 48 20 62 20 22 0 24
3 18 33 -3 17 -6 33 -7 33 -7 7 -156 10 -156 3z m145 -39 c4 -6 -7 -10 -29
-10 -25 0 -38 -6 -46 -20 -6 -11 -20 -20 -30 -20 -29 0 -24 17 6 24 47 12 15
20 -68 17 -44 -1 -78 1 -75 6 8 12 234 16 242 3z"/>
<path d="M456 1001 c-3 -5 -9 -77 -12 -160 -5 -108 -4 -154 5 -164 6 -8 9 -22
5 -31 -4 -11 -1 -16 11 -16 13 0 16 6 12 23 -6 22 18 66 31 57 4 -3 8 50 10
117 2 96 -1 129 -13 153 -15 29 -38 39 -49 21z m21 -33 c-3 -8 -6 -5 -6 6 -1
11 2 17 5 13 3 -3 4 -12 1 -19z m23 -75 c0 -13 -4 -23 -10 -23 -5 0 -10 17
-10 38 0 27 3 33 10 22 5 -8 10 -25 10 -37z"/>
<path d="M970 660 c0 -5 8 -10 18 -10 130 -4 156 -3 160 8 3 9 -22 12 -87 12
-54 0 -91 -4 -91 -10z"/>
<path d="M2866 1394 c-12 -12 -16 -36 -16 -99 0 -65 -3 -83 -13 -79 -7 2 -23
-5 -36 -18 -24 -21 -24 -23 -18 -181 3 -88 9 -162 12 -166 4 -3 11 2 16 12 6
10 22 17 39 17 31 0 41 17 16 26 -11 4 -12 13 -6 34 5 16 9 116 9 222 1 180 3
194 21 210 11 9 20 21 20 27 0 16 -26 13 -44 -5z m-49 -236 c-3 -8 -6 -5 -6 6
-1 11 2 17 5 13 3 -3 4 -12 1 -19z m20 -10 c-3 -7 -5 -2 -5 12 0 14 2 19 5 13
2 -7 2 -19 0 -25z m-20 -90 c-3 -7 -5 -2 -5 12 0 14 2 19 5 13 2 -7 2 -19 0
-25z"/>
<path d="M2763 834 c-16 -7 -5 -34 13 -34 8 0 14 9 14 20 0 20 -5 23 -27 14z"/>
<path d="M2782 618 c3 -7 20 -16 39 -19 42 -8 30 -11 -36 -10 -65 1 -117 -11
-107 -25 4 -7 41 -9 105 -6 92 4 98 6 103 28 9 35 -3 44 -57 44 -36 0 -49 -4
-47 -12z"/>
<path d="M5970 1413 c-30 -3 -58 -10 -63 -16 -7 -9 -10 -9 -14 1 -9 24 -33 13
-33 -16 l0 -29 80 5 c69 4 80 2 80 -12 0 -9 8 -16 20 -16 11 0 20 7 20 15 0
12 13 15 60 15 51 0 60 3 60 18 0 11 -12 22 -33 30 -32 12 -62 12 -177 5z m13
-20 c-7 -2 -21 -2 -30 0 -10 3 -4 5 12 5 17 0 24 -2 18 -5z m37 3 c0 -3 -4 -8
-10 -11 -5 -3 -10 -1 -10 4 0 6 5 11 10 11 6 0 10 -2 10 -4z m94 -4 c2 -4 -11
-6 -30 -4 -19 2 -34 6 -34 8 0 8 59 4 64 -4z"/>
<path d="M5796 1321 c-4 -5 -3 -115 1 -245 5 -187 9 -236 20 -236 10 0 13 22
15 88 1 48 2 105 3 126 0 22 -4 44 -10 49 -7 7 -8 30 -4 66 13 100 11 161 -5
161 -8 0 -17 -4 -20 -9z"/>
<path d="M6050 1271 l-75 -6 -3 -117 -3 -118 146 0 c160 0 197 9 233 55 16 20
22 42 22 77 0 66 -21 104 -61 112 -35 7 -144 5 -259 -3z"/>
<path d="M6410 1250 c0 -20 5 -30 15 -30 10 0 15 10 15 30 0 20 -5 30 -15 30
-10 0 -15 -10 -15 -30z"/>
<path d="M6404 1189 c-12 -14 -19 -40 -22 -84 -4 -54 -8 -67 -28 -80 -22 -14
-33 -45 -16 -45 4 0 22 9 40 20 27 17 32 26 34 62 0 24 2 55 2 70 1 15 9 35
19 46 9 10 14 22 10 25 -11 11 -19 8 -39 -14z"/>
<path d="M5920 965 c0 -11 12 -15 45 -15 33 0 45 -4 45 -15 0 -8 9 -15 20 -15
11 0 20 7 20 15 0 11 12 15 45 15 33 0 45 4 45 15 0 12 -19 15 -110 15 -91 0
-110 -3 -110 -15z"/>
<path d="M6304 705 c-4 -9 5 -30 21 -51 15 -19 24 -41 21 -49 -3 -8 -1 -17 3
-19 10 -7 61 16 61 27 0 4 -23 30 -50 58 -39 39 -52 47 -56 34z"/>
<path d="M3390 1396 c0 -14 24 -29 33 -19 3 3 3 11 0 19 -7 18 -33 18 -33 0z"/>
<path d="M3612 1395 c-5 -10 -31 -17 -78 -21 -70 -6 -98 -22 -87 -50 4 -11 30
-14 115 -14 105 0 110 1 105 20 -5 19 0 20 84 20 75 0 89 3 89 16 0 14 -13 15
-90 12 -80 -3 -90 -1 -90 15 0 21 -36 23 -48 2z m-2 -55 c8 -2 -16 -6 -55 -9
-73 -6 -112 0 -60 9 31 5 89 5 115 0z"/>
<path d="M3760 1041 c0 -25 -4 -31 -21 -31 -19 0 -20 -4 -14 -32 4 -18 9 -75
12 -125 3 -62 8 -93 16 -93 8 0 13 30 15 93 3 58 9 101 19 117 11 19 12 35 6
60 -12 44 -33 52 -33 11z"/>
<path d="M4860 1423 c-85 -28 -170 -75 -170 -94 0 -19 50 -8 80 18 18 15 53
32 79 38 28 8 47 18 49 29 3 16 -9 19 -38 9z"/>
<path d="M4844 1247 c-57 -31 -79 -49 -93 -74 -6 -13 -23 -26 -37 -29 -14 -4
-23 -11 -21 -18 2 -6 0 -20 -6 -31 -15 -27 -19 -150 -7 -195 30 -112 141 -193
263 -194 157 0 279 123 280 284 1 110 -64 218 -158 261 -58 27 -167 25 -221
-4z"/>
<path d="M5251 810 c-30 -22 -61 -40 -69 -40 -8 0 -28 -11 -44 -25 -41 -35
-96 -62 -141 -70 -22 -4 -37 -13 -37 -21 0 -22 36 -16 123 21 13 5 17 2 17
-13 0 -12 5 -24 10 -27 11 -6 100 78 100 94 0 9 13 20 90 79 16 13 30 28 30
33 0 18 -26 8 -79 -31z m-107 -115 c-9 -14 -19 -24 -21 -21 -6 6 20 46 30 46
4 0 0 -11 -9 -25z"/>
<path d="M1586 1394 l-25 -22 32 -25 c31 -23 42 -25 154 -26 115 -2 123 0 133
20 17 30 4 69 -23 71 -12 1 -72 2 -134 2 -101 1 -114 -1 -137 -20z m84 -24 c0
-13 -7 -20 -20 -20 -11 0 -20 5 -20 11 0 5 5 7 12 3 8 -5 9 -2 5 9 -4 11 -1
17 8 17 8 0 15 -9 15 -20z m178 -2 c2 -13 -3 -18 -17 -18 -12 0 -21 6 -22 13
0 10 -2 10 -6 0 -2 -7 -20 -13 -39 -13 -26 0 -34 4 -34 18 0 16 8 19 57 18 47
-1 58 -4 61 -18z"/>
<path d="M1950 1336 c0 -9 7 -16 16 -16 17 0 14 22 -4 28 -7 2 -12 -3 -12 -12z"/>
<path d="M1910 1330 c0 -5 7 -10 15 -10 8 0 15 5 15 10 0 6 -7 10 -15 10 -8 0
-15 -4 -15 -10z"/>
<path d="M1820 1241 l-55 -6 -6 -70 c-4 -38 -7 -159 -8 -269 l-1 -198 128 4
c114 3 132 6 178 30 92 48 144 143 144 264 0 74 -19 131 -64 187 -35 45 -189
73 -316 58z"/>
<path d="M1620 680 c0 -56 3 -70 15 -70 12 0 15 14 15 70 0 56 -3 70 -15 70
-12 0 -15 -14 -15 -70z"/>
<path d="M1685 640 c-13 -21 9 -30 76 -30 62 0 69 2 69 20 0 18 -7 20 -69 20
-39 0 -73 -4 -76 -10z"/>
</g>
</svg>
