<?xml version="1.0" standalone="no"?>
<!DOCTYPE svg PUBLIC "-//W3C//DTD SVG 20010904//EN"
 "http://www.w3.org/TR/2001/REC-SVG-20010904/DTD/svg10.dtd">
<svg version="1.0" xmlns="http://www.w3.org/2000/svg"
 width="1024.000000pt" height="1024.000000pt" viewBox="0 0 1024.000000 1024.000000"
 preserveAspectRatio="xMidYMid meet">

<g transform="translate(0.000000,1024.000000) scale(0.100000,-0.100000)"
fill="#000000" stroke="none">
<path d="M5420 9793 c-59 -20 -79 -37 -98 -82 -12 -26 -30 -56 -42 -66 -12
-11 -30 -36 -40 -55 -16 -33 -16 -38 0 -82 9 -27 27 -59 39 -72 27 -29 86 -43
108 -25 8 7 24 14 35 14 25 2 52 35 79 94 11 25 31 55 44 68 33 34 42 95 18
135 -30 52 -98 86 -143 71z m92 -70 c42 -38 4 -133 -54 -133 -39 0 -88 36 -88
66 0 27 16 65 34 76 20 14 89 8 108 -9z"/>
<path d="M2956 9734 c-38 -9 -99 -29 -135 -45 -36 -16 -98 -35 -139 -41 -40
-6 -82 -18 -94 -27 -18 -15 -19 -21 -10 -54 10 -34 9 -37 -11 -37 -27 -1 -55
-21 -72 -52 -44 -80 -85 -167 -85 -180 0 -8 9 -23 20 -33 17 -15 20 -31 20
-102 0 -103 23 -152 72 -153 13 0 16 -11 15 -66 -2 -58 1 -68 22 -85 13 -10
33 -19 45 -19 27 0 129 94 183 170 60 83 66 86 121 71 62 -18 125 -28 140 -23
22 7 81 107 88 150 5 33 13 45 40 61 63 37 55 93 -28 217 l-51 74 6 80 c9 116
-4 124 -147 94z m99 -111 c-4 -56 -2 -84 7 -100 7 -12 32 -53 56 -92 23 -38
42 -79 42 -90 0 -19 -4 -20 -62 -14 -67 6 -89 13 -45 13 33 0 35 13 5 27 -13
5 -43 19 -68 31 -90 41 -95 40 -90 -18 2 -19 -1 -22 -12 -13 -18 16 -46 -23
-29 -40 8 -8 11 -6 11 8 0 10 3 16 6 12 3 -3 -2 -27 -12 -54 -11 -26 -19 -50
-19 -53 -1 -13 -22 -37 -38 -43 -15 -6 -16 -4 -5 16 12 22 14 28 17 48 0 5 6
7 13 3 7 -5 9 -2 5 8 -3 9 0 21 6 27 6 6 8 13 5 17 -4 3 -23 -29 -44 -70 -20
-42 -41 -76 -47 -76 -6 0 -7 25 -3 63 4 34 7 90 7 124 2 57 -1 65 -37 110 -22
26 -44 53 -50 58 -22 21 -43 64 -35 70 6 3 41 9 79 14 38 5 80 15 93 22 39 21
192 68 222 69 l28 0 -6 -77z"/>
<path d="M2780 9476 c0 -2 7 -7 16 -10 8 -3 12 -2 9 4 -6 10 -25 14 -25 6z"/>
<path d="M2814 9454 c-7 -3 -10 -14 -7 -25 5 -18 6 -19 19 -2 22 29 17 39 -12
27z"/>
<path d="M4040 9720 c-42 -10 -60 -33 -60 -76 0 -18 -4 -36 -10 -39 -5 -3 -10
-15 -10 -26 0 -11 -4 -17 -10 -14 -6 4 -10 -13 -10 -44 0 -42 5 -56 31 -86 29
-33 36 -36 77 -33 30 2 47 8 49 18 4 13 3 13 -6 0 -6 -8 -11 -10 -11 -4 0 6
14 23 31 38 20 18 29 35 27 50 -2 15 8 32 31 52 28 26 33 36 33 78 0 35 -6 54
-20 68 -23 23 -89 31 -142 18z m104 -42 c41 -58 -10 -118 -79 -92 -14 6 -45
53 -45 69 0 11 65 45 87 45 12 0 29 -10 37 -22z"/>
<path d="M7625 9638 c-20 -18 -64 -78 -98 -133 l-62 -100 -132 0 c-140 -1
-163 -8 -163 -50 0 -13 -10 -27 -25 -35 -13 -7 -27 -25 -30 -39 -7 -31 21
-105 35 -96 6 3 10 -1 10 -11 0 -9 9 -32 21 -51 27 -43 28 -125 1 -193 -55
-143 -52 -199 12 -214 44 -12 123 11 118 33 -2 9 3 11 13 7 9 -3 46 4 82 17
l65 22 35 -40 c20 -22 32 -33 28 -25 -5 9 -4 12 1 7 5 -5 9 -14 9 -20 3 -39
19 -68 35 -64 13 3 16 0 13 -14 -6 -23 12 -25 21 -3 5 14 9 14 22 3 13 -10 17
-10 24 1 4 7 15 10 23 7 10 -4 14 -1 11 6 -2 7 12 33 33 57 37 42 38 47 43
134 l5 90 65 38 c36 21 74 42 85 47 47 21 94 100 95 157 0 30 -22 46 -130 98
-52 25 -100 50 -106 55 -6 5 -14 51 -18 103 -12 162 -18 190 -42 215 -32 31
-58 29 -99 -9z m59 -90 c3 -18 10 -86 17 -150 l12 -116 41 -11 c92 -24 246
-119 180 -110 -11 1 -27 -2 -37 -6 -11 -4 -51 -1 -95 9 -121 26 -162 34 -162
32 0 -2 13 -27 30 -57 27 -50 30 -61 29 -154 0 -55 -4 -109 -8 -120 -8 -19 -8
-19 -19 2 -7 12 -12 37 -12 55 0 41 -55 244 -71 264 -15 18 -29 18 -29 -1 0
-8 -40 -46 -90 -86 -49 -39 -99 -87 -109 -105 -27 -45 -46 -45 -27 0 20 48 63
110 67 97 2 -6 38 21 79 59 61 57 72 71 60 80 -18 11 -255 100 -269 100 -6 0
-13 5 -16 10 -5 8 31 10 112 8 l119 -3 38 33 c20 17 34 32 30 32 -4 0 2 10 13
23 11 12 33 45 48 72 49 87 61 95 69 43z m-444 -678 c0 -5 -2 -10 -4 -10 -3 0
-8 5 -11 10 -3 6 -1 10 4 10 6 0 11 -4 11 -10z"/>
<path d="M6571 9478 c-47 -57 -61 -77 -61 -87 0 -22 39 -89 55 -95 28 -10 73
-7 82 7 10 16 33 76 40 105 12 50 -85 108 -116 70z m73 -50 c11 -16 13 -25 4
-35 -15 -19 -36 -16 -48 8 -24 44 16 68 44 27z"/>
<path d="M4865 9254 c-543 -60 -780 -116 -1150 -271 -218 -92 -411 -200 -569
-317 -47 -36 -137 -95 -199 -132 -142 -85 -177 -118 -226 -218 -25 -50 -63
-105 -99 -144 -67 -72 -93 -119 -137 -249 l-31 -92 -84 65 c-104 80 -160 110
-247 130 -131 31 -242 -4 -347 -108 -38 -37 -72 -68 -77 -68 -15 0 -71 -54
-94 -90 -24 -38 -54 -126 -102 -295 -24 -85 -28 -117 -27 -215 1 -124 15 -208
44 -273 22 -48 19 -57 -20 -57 -46 0 -81 -38 -87 -93 -4 -34 -12 -53 -29 -66
-13 -11 -24 -24 -24 -29 0 -6 -9 -13 -19 -17 -29 -9 -44 -57 -39 -125 6 -78
45 -131 107 -144 36 -8 44 -6 56 10 21 27 18 51 -7 68 -21 15 -21 16 -2 21 63
20 83 44 104 123 8 31 18 46 36 52 13 5 30 21 36 35 11 24 15 26 52 19 81 -13
116 -45 81 -74 -8 -7 -15 -17 -15 -22 0 -5 -8 -20 -17 -35 -10 -14 -28 -51
-41 -82 -118 -281 -157 -420 -171 -615 -6 -70 -12 -131 -15 -133 -3 -3 -10 15
-15 38 -16 64 -32 91 -70 116 -46 31 -107 46 -161 40 -52 -6 -86 -39 -162
-159 -91 -143 -112 -194 -112 -278 -1 -58 4 -87 22 -126 28 -61 51 -74 131
-74 49 0 65 5 102 31 24 17 49 36 54 43 6 6 19 16 30 22 31 17 93 102 127 174
34 71 47 64 29 -18 -5 -26 -15 -105 -21 -176 -11 -113 -9 -152 9 -325 30 -288
41 -450 41 -598 0 -142 4 -166 56 -376 51 -206 77 -266 292 -681 22 -42 28
-73 38 -197 6 -81 16 -155 22 -164 5 -10 7 -26 5 -35 -3 -10 7 -40 21 -66 14
-27 26 -55 26 -62 0 -7 14 -42 30 -79 17 -37 27 -70 22 -75 -4 -4 -34 3 -67
17 -71 29 -175 34 -231 10 -94 -39 -139 -101 -178 -245 -15 -53 -28 -76 -70
-120 -35 -37 -68 -87 -98 -151 -25 -53 -62 -121 -82 -150 -20 -30 -46 -85 -57
-124 -11 -38 -29 -100 -40 -137 -42 -138 -59 -251 -65 -428 -3 -96 -12 -224
-20 -283 -26 -195 -13 -364 33 -432 7 -11 13 -25 13 -32 0 -28 61 -144 72
-137 6 4 8 3 5 -3 -8 -13 54 -70 92 -85 182 -74 222 -80 320 -52 89 27 230 85
304 126 37 21 109 57 160 79 50 22 97 44 102 49 6 4 38 17 71 28 55 19 128 49
176 73 9 5 46 13 81 19 35 5 84 17 108 26 55 19 351 37 504 30 61 -3 136 -5
168 -6 l57 0 0 -47 c0 -53 25 -105 61 -124 15 -8 54 -10 116 -7 123 7 144 20
246 159 11 15 57 16 519 11 l507 -5 6 -25 c10 -41 42 -78 77 -92 18 -6 40 -15
48 -20 9 -4 48 -11 87 -15 59 -6 77 -4 114 13 24 11 53 22 64 26 11 3 34 19
50 34 39 37 65 50 106 56 19 3 77 14 129 26 92 21 111 21 530 15 536 -8 617
-15 785 -70 39 -13 85 -26 103 -30 24 -5 36 -15 46 -38 7 -18 24 -42 37 -53
33 -29 177 -77 210 -70 18 3 32 0 40 -10 16 -19 77 -16 141 7 26 9 48 15 50
14 6 -6 126 80 187 134 38 33 60 60 57 68 -3 8 -1 11 4 8 11 -7 64 27 91 57 9
10 21 18 27 18 6 0 12 4 14 8 2 4 72 55 156 111 83 57 152 107 152 112 0 5 7
9 15 9 8 0 15 4 15 9 0 5 10 11 23 15 13 3 36 17 51 31 15 14 33 25 41 25 7 0
15 3 17 8 4 9 106 72 117 72 4 0 16 9 26 20 10 11 22 20 26 20 10 0 142 99
151 114 4 6 8 7 8 2 0 -6 12 2 28 16 15 14 65 51 111 82 46 32 89 62 95 67 6
5 40 29 76 52 97 64 93 96 -15 111 -27 4 -70 10 -95 15 -43 7 -44 8 -20 18
166 71 310 144 330 167 18 23 8 67 -21 88 -25 19 -66 32 -244 79 -119 31 -228
76 -272 110 -21 17 -54 39 -74 50 -20 10 -39 25 -43 34 -3 10 -2 14 5 10 28
-18 139 99 139 147 0 8 13 33 29 55 16 23 27 44 24 47 -4 3 0 6 9 6 16 0 62
86 73 139 4 18 16 52 26 75 28 62 27 253 -2 313 -25 53 -112 133 -176 163 -92
43 -251 36 -341 -16 -23 -14 -82 -69 -130 -124 -79 -89 -102 -122 -150 -213
-8 -16 -19 -66 -24 -110 -4 -45 -13 -98 -18 -117 -6 -19 -10 -52 -10 -72 0
-21 -2 -38 -4 -38 -2 0 -25 9 -51 20 -25 11 -74 23 -107 27 l-62 8 66 75 c36
41 81 100 100 130 20 30 48 69 63 85 35 39 182 264 219 335 16 30 51 89 79
129 75 112 199 386 213 470 3 19 10 44 14 57 9 24 69 263 76 304 3 14 8 34 11
45 4 11 8 25 9 30 1 6 14 55 28 110 15 55 48 222 72 370 44 265 45 274 44 495
0 124 1 248 2 275 3 90 -22 447 -42 600 -37 273 -41 294 -91 468 -27 94 -65
234 -84 310 -68 267 -120 370 -334 662 -16 22 -32 51 -35 65 -3 14 -3 19 0 13
20 -45 143 49 207 158 15 25 27 53 27 62 0 8 4 17 10 19 5 2 20 39 34 83 13
44 36 107 52 140 24 51 29 73 29 146 0 78 -3 90 -30 135 -64 102 -189 164
-335 164 -185 0 -278 -48 -356 -185 -16 -27 -46 -67 -67 -88 l-38 -38 -57 42
c-76 57 -108 84 -232 199 -133 124 -152 139 -225 182 -149 88 -327 173 -525
251 -243 95 -307 117 -540 181 -231 64 -292 75 -480 92 -165 14 -659 26 -735
18z m690 -114 c50 -6 144 -18 209 -26 91 -11 169 -31 325 -80 314 -100 489
-170 455 -181 -6 -2 -61 9 -123 25 -61 16 -114 25 -117 21 -5 -8 35 -29 55
-29 4 0 18 -9 30 -19 13 -11 28 -22 34 -25 8 -3 7 -8 -3 -16 -10 -8 -55 -10
-142 -6 -71 2 -128 1 -128 -3 0 -4 19 -17 42 -27 44 -19 108 -70 108 -84 0 -4
-17 -4 -37 1 -87 20 -92 4 -12 -37 57 -29 129 -90 129 -110 0 -8 5 -14 10 -14
6 0 10 -4 10 -10 0 -5 -19 -10 -42 -9 -33 0 -38 2 -23 9 22 8 18 10 -55 23
-34 7 -180 42 -335 82 -121 31 -166 40 -400 81 -49 8 -111 19 -138 24 -145 27
-708 26 -691 -1 3 -5 -2 -6 -11 -3 -20 8 -45 -13 -45 -37 0 -12 -5 -16 -15
-13 -8 3 -31 0 -52 -7 -21 -8 -42 -14 -48 -15 -5 -1 -14 -2 -18 -3 -4 0 5 -12
20 -26 l28 -24 -25 -1 c-14 0 -36 -7 -50 -15 -14 -8 -42 -14 -62 -15 -20 0
-49 -5 -65 -11 -23 -8 -26 -8 -15 2 18 19 15 39 -7 39 -11 0 -90 -20 -177 -45
-139 -40 -264 -93 -411 -174 -10 -6 -63 -31 -117 -57 -85 -39 -112 -58 -190
-135 -50 -48 -111 -102 -136 -118 -25 -17 -58 -42 -74 -56 -16 -14 -32 -25
-36 -25 -11 0 -132 -126 -150 -155 -21 -35 -33 -31 -24 8 4 17 7 37 7 44 0 7
6 14 14 17 7 3 13 12 13 19 0 8 26 36 58 63 164 139 247 220 235 227 -10 7
-94 -51 -157 -107 -172 -154 -261 -241 -279 -272 -4 -8 -22 -21 -38 -30 l-31
-16 7 33 c12 56 33 96 76 145 26 30 37 50 29 52 -28 10 -61 -22 -143 -138 -32
-44 -32 -44 -35 -17 -2 15 4 41 12 59 9 17 16 42 16 55 0 22 52 80 130 146 11
10 18 22 15 27 -4 6 1 7 11 3 11 -4 15 -3 10 5 -3 6 2 16 13 21 11 6 27 35 37
66 24 79 66 138 145 203 37 31 65 60 62 64 -6 12 -34 -6 -142 -87 -53 -40
-110 -80 -127 -88 -47 -24 -117 -47 -126 -41 -32 20 27 82 147 152 44 26 130
82 192 125 130 90 335 192 488 242 59 19 155 57 214 86 270 129 459 180 921
248 83 13 627 6 745 -9z m1292 -396 c26 -8 93 -38 149 -65 105 -51 189 -114
329 -249 44 -42 119 -108 166 -147 111 -92 175 -164 256 -288 37 -55 100 -140
142 -189 41 -49 107 -137 147 -195 39 -58 105 -155 148 -215 116 -165 126
-190 215 -526 16 -63 53 -198 80 -300 52 -190 73 -318 91 -545 6 -71 15 -177
20 -235 12 -132 12 -271 1 -289 -7 -11 -13 -8 -27 13 -13 20 -20 63 -28 167
-7 95 -14 139 -22 139 -17 0 -24 -35 -24 -130 0 -90 -12 -134 -23 -83 -10 45
-43 90 -86 117 -27 18 -43 37 -54 68 -33 91 -66 205 -72 248 -3 25 -9 54 -14
65 -5 11 -14 52 -21 90 -7 39 -24 99 -37 135 -14 36 -31 84 -40 108 -8 23 -21
42 -29 42 -11 0 -12 -19 -8 -97 3 -54 10 -114 15 -133 14 -54 12 -143 -3 -138
-7 3 -16 21 -19 42 -4 23 -19 51 -41 74 -41 43 -55 79 -99 257 -42 165 -151
479 -256 736 -98 238 -113 261 -233 361 -58 48 -134 118 -170 156 -36 38 -72
72 -81 75 -9 3 -32 38 -52 79 -26 56 -56 95 -123 163 -49 50 -106 103 -126
119 -21 16 -38 36 -38 46 0 19 -103 130 -121 130 -6 0 -25 11 -41 25 -42 35
-104 66 -121 60 -7 -3 -23 -2 -34 2 -38 14 -1 46 60 52 4 1 7 10 7 20 0 15
-16 25 -64 42 -122 44 -42 54 114 14 54 -14 126 -37 160 -51 60 -27 93 -25 56
1 -54 40 -275 114 -339 115 -15 0 -46 10 -69 21 l-42 21 55 24 c30 13 60 23
67 24 6 0 21 9 32 20 17 17 33 20 110 20 54 0 108 -6 137 -16z m-2139 -121
c-15 -2 -42 -2 -60 0 -18 2 -6 4 27 4 33 0 48 -2 33 -4z m350 0 c-10 -2 -26
-2 -35 0 -10 3 -2 5 17 5 19 0 27 -2 18 -5z m205 0 c-24 -2 -62 -2 -85 0 -24
2 -5 4 42 4 47 0 66 -2 43 -4z m512 -3 c3 -5 1 -10 -4 -10 -6 0 -11 5 -11 10
0 6 2 10 4 10 3 0 8 -4 11 -10z m83 -7 c-10 -2 -26 -2 -35 0 -10 3 -2 5 17 5
19 0 27 -2 18 -5z m-300 -10 c-16 -2 -40 -2 -55 0 -16 2 -3 4 27 4 30 0 43 -2
28 -4z m2716 -73 c133 -50 191 -190 131 -318 -23 -49 -26 -52 -45 -40 -11 7
-23 23 -26 36 -8 28 -10 28 -44 -6 -21 -21 -48 -33 -104 -45 -114 -25 -134
-23 -238 31 -89 45 -93 49 -96 82 -4 59 -12 100 -20 97 -24 -8 -4 47 33 91 15
18 41 40 59 49 84 45 260 56 350 23z m-1739 -60 c-3 -5 -10 -10 -16 -10 -5 0
-9 5 -9 10 0 6 7 10 16 10 8 0 12 -4 9 -10z m102 -92 c-3 -8 -6 -5 -6 6 -1 11
2 17 5 13 3 -3 4 -12 1 -19z m-2767 7 c0 -2 -17 -13 -37 -24 -21 -10 -49 -31
-62 -45 -14 -14 -28 -26 -32 -26 -6 0 -167 -73 -194 -88 -5 -3 -1 5 10 17 11
13 85 56 165 97 160 80 150 76 150 69z m-1108 -382 c4 -2 -3 -16 -17 -31 -29
-31 -34 -28 -28 15 5 30 13 33 45 16z m-589 -45 c36 -13 79 -40 110 -68 29
-26 64 -57 80 -70 29 -25 36 -50 13 -50 -8 0 -25 -14 -38 -31 -77 -101 -147
-162 -218 -189 -19 -8 -66 -29 -105 -48 l-70 -33 -73 22 c-58 18 -75 20 -81
10 -5 -7 -21 -11 -37 -9 -27 3 -28 5 -32 66 -8 138 33 257 118 342 89 89 197
108 333 58z m5097 -208 c0 -5 -2 -10 -4 -10 -3 0 -8 5 -11 10 -3 6 -1 10 4 10
6 0 11 -4 11 -10z m60 -71 c18 -33 6 -42 -13 -9 -10 16 -14 30 -8 30 6 0 15
-9 21 -21z m-2450 -79 c355 -18 466 -30 990 -99 394 -53 603 -98 727 -157 197
-94 334 -262 384 -471 36 -150 22 -269 -49 -411 -46 -92 -65 -44 -26 64 33 88
45 169 36 244 -8 70 -25 88 -30 30 -1 -19 -5 -55 -8 -79 l-6 -43 -43 5 c-33 5
-48 2 -67 -13 -22 -17 -250 -89 -288 -91 -8 0 -33 -9 -55 -20 l-40 -19 35 1
c80 2 130 -1 130 -9 0 -28 -146 -41 -240 -22 -25 5 -93 12 -153 16 -96 6 -109
5 -127 -11 -18 -16 -25 -17 -54 -7 -51 19 -75 15 -88 -14 -11 -23 -16 -25 -52
-19 -78 12 -154 29 -436 101 -74 18 -149 34 -166 34 -64 0 -124 13 -124 26 0
8 -17 15 -42 18 -24 2 -103 12 -176 21 -124 16 -257 15 -344 -1 -20 -4 -28 -2
-28 9 0 36 -141 30 -200 -9 -19 -12 -75 -61 -125 -108 -49 -47 -107 -93 -129
-101 -21 -9 -45 -22 -53 -30 -8 -9 -19 -12 -25 -9 -7 4 -8 2 -4 -4 4 -7 -4
-23 -18 -37 -13 -13 -27 -35 -31 -47 -4 -13 -18 -51 -31 -85 -25 -63 -31 -103
-16 -103 9 0 32 44 76 143 23 53 67 105 108 128 13 7 20 2 32 -23 9 -17 16
-44 16 -59 0 -33 -24 -129 -39 -157 -6 -11 -15 -49 -21 -84 -5 -35 -16 -99
-25 -143 -23 -120 -35 -238 -35 -353 0 -100 1 -103 21 -97 14 5 28 -1 47 -20
25 -26 26 -26 34 -6 4 12 9 21 11 21 2 0 4 -35 3 -77 0 -43 -2 -68 -4 -55 -4
23 -22 31 -22 9 0 -7 4 -38 10 -68 5 -30 14 -117 20 -194 24 -307 71 -548 130
-665 61 -121 107 -173 193 -215 83 -40 150 -55 254 -55 91 0 591 50 893 89
463 61 852 95 1014 89 109 -3 112 -4 195 -48 164 -89 270 -218 327 -400 31
-101 11 -331 -33 -366 -7 -7 -13 -16 -12 -20 4 -21 -2 -35 -12 -29 -6 4 -9 0
-7 -10 2 -10 -2 -20 -8 -22 -23 -8 -7 58 18 81 22 18 23 23 11 34 -8 8 -21 11
-29 8 -20 -8 -18 17 4 30 22 15 58 82 48 91 -4 5 -20 -7 -34 -25 -15 -18 -49
-43 -77 -56 -55 -27 -100 -65 -110 -95 -3 -10 -20 -25 -37 -32 -29 -12 -32
-11 -50 14 -26 36 -54 34 -158 -9 -78 -33 -97 -37 -225 -44 -77 -5 -165 -12
-195 -15 -63 -7 -226 -40 -261 -53 -13 -5 -55 -13 -94 -16 -38 -4 -149 -26
-245 -48 -183 -42 -231 -49 -527 -69 -147 -10 -218 -10 -370 0 -103 7 -201 16
-218 21 -106 31 -201 54 -314 75 -198 37 -326 84 -326 120 0 15 10 22 40 28
22 5 48 13 57 18 10 5 27 9 38 9 29 0 25 15 -11 42 -17 13 -60 49 -95 81 -42
38 -71 57 -81 53 -50 -20 -62 -18 -91 14 -16 17 -36 44 -43 58 -7 15 -19 34
-25 42 -17 20 -157 297 -195 385 -43 99 -64 162 -99 305 -60 239 -74 345 -55
413 6 21 2 38 -13 66 -16 29 -24 70 -34 191 -14 164 -17 402 -6 460 14 76 21
230 10 230 -17 0 -41 -40 -48 -80 -4 -19 -13 -43 -21 -52 -8 -9 -12 -22 -8
-28 4 -6 3 -44 -1 -83 l-9 -72 -5 80 c-7 93 6 257 21 266 6 3 17 24 24 45 8
21 14 32 15 25 0 -12 3 -12 12 -3 9 9 9 15 3 20 -15 10 -11 102 5 102 6 0 7
-18 3 -45 -4 -31 -2 -45 6 -45 7 0 9 11 6 30 -4 23 -2 30 11 30 9 0 23 8 30
18 10 14 10 20 -3 35 -9 9 -22 17 -30 17 -15 0 -14 6 18 125 11 39 26 112 34
163 9 52 24 113 35 137 26 57 25 72 -5 137 -30 63 -32 116 -6 149 10 13 26 49
36 79 25 75 71 171 79 163 3 -3 6 2 7 13 0 10 2 33 4 49 7 48 -7 61 -44 42
-36 -18 -37 -16 -13 26 84 150 151 211 331 302 101 50 179 74 286 85 106 11
605 11 825 0z m-2075 -94 c12 -18 14 -37 9 -76 -9 -67 -58 -142 -163 -247 -45
-46 -76 -83 -69 -83 10 0 10 -2 0 -9 -8 -4 -27 -35 -44 -67 -17 -33 -42 -81
-56 -109 -24 -47 -79 -210 -89 -265 -4 -25 -4 -25 21 5 14 17 33 50 42 75 34
92 55 130 74 130 25 0 34 -17 23 -43 -32 -70 -48 -110 -72 -187 -16 -47 -38
-107 -49 -135 -12 -27 -35 -103 -52 -168 -26 -101 -31 -147 -40 -335 -9 -193
-24 -309 -45 -341 -3 -6 -14 -11 -24 -11 -37 0 -48 54 -55 255 -3 105 -11 227
-17 273 -11 82 -9 147 10 354 14 157 33 208 77 208 20 0 29 11 49 56 14 31 30
75 36 97 6 23 15 47 19 52 5 6 19 37 31 70 12 33 33 77 46 98 13 20 35 63 50
95 15 31 32 62 39 67 6 6 26 33 44 60 19 28 49 68 67 91 18 23 33 45 33 50 1
10 69 64 81 64 5 0 16 -11 24 -24z m-1225 -668 c19 -35 6 -59 -39 -72 -30 -9
-55 1 -56 22 -1 4 -6 17 -14 30 -19 35 1 54 53 50 32 -2 44 -9 56 -30z m2817
-154 c-3 -3 -12 -4 -19 -1 -8 3 -5 6 6 6 11 1 17 -2 13 -5z m43 -14 c0 -5 -2
-10 -4 -10 -3 0 -8 5 -11 10 -3 6 -1 10 4 10 6 0 11 -4 11 -10z m-3058 -737
c48 -33 68 -74 68 -139 l0 -47 -27 24 c-18 17 -24 19 -20 7 7 -20 -18 -28 -90
-28 -31 0 -53 4 -53 11 0 6 -8 8 -17 5 -10 -3 -25 -1 -33 4 -25 17 8 29 61 23
29 -3 49 -1 53 6 5 7 -2 11 -17 11 -13 0 -32 9 -42 20 -13 14 -22 17 -35 10
-13 -7 -22 -5 -31 6 -19 23 8 94 41 112 36 18 95 8 142 -25z m4063 -9 c160
-13 367 -35 460 -49 94 -13 260 -33 370 -45 396 -41 435 -50 546 -121 93 -61
153 -128 200 -226 55 -115 69 -163 76 -263 8 -126 -23 -280 -71 -345 -12 -16
-13 -14 -11 27 2 25 8 63 15 83 12 37 11 74 -9 220 l-8 60 -2 -52 c0 -28 -5
-54 -10 -57 -5 -3 -12 -22 -16 -43 -14 -78 -73 -161 -136 -193 -41 -21 -53
-25 -46 -12 3 4 -36 7 -86 7 -70 0 -100 4 -125 18 -42 23 -102 84 -102 103 0
18 -10 18 -73 -1 -29 -8 -110 -19 -182 -24 -71 -6 -139 -12 -150 -14 -11 -3
-23 -5 -27 -6 -15 -2 -8 -31 7 -31 8 0 15 -6 15 -12 0 -9 4 -8 10 2 8 12 10
12 10 -5 1 -18 2 -18 11 -3 8 15 26 17 110 17 89 0 100 -2 97 -17 -4 -23 -71
-53 -134 -59 -47 -5 -53 -3 -59 16 -5 18 -14 21 -63 21 -31 0 -64 5 -72 10 -8
5 -10 10 -5 11 6 0 -1 4 -14 8 -13 3 -67 0 -120 -7 -90 -13 -110 -12 -346 14
-140 16 -292 28 -345 27 -52 -1 -152 -3 -221 -5 l-125 -2 -95 46 c-52 26 -116
66 -142 89 -38 35 -54 43 -80 41 -28 -3 -35 2 -51 33 -18 33 -20 55 -18 229
l2 193 35 76 c20 42 35 82 34 89 -1 7 -1 22 0 33 1 17 3 18 11 5 6 -9 10 -10
10 -3 0 7 10 21 22 33 12 11 18 20 12 20 -5 0 10 9 34 20 47 21 55 40 17 40
-24 0 -33 18 -17 35 13 14 562 -5 857 -31z m2475 0 c0 13 29 -26 30 -39 0 -5
-5 -3 -10 5 -5 8 -10 11 -10 6 0 -13 -29 26 -30 39 0 6 5 3 10 -5 5 -8 10 -11
10 -6z m137 -66 c-3 -8 -6 -5 -6 6 -1 11 2 17 5 13 3 -3 4 -12 1 -19z m-3867
-78 c0 -11 -4 -20 -9 -20 -5 0 -7 9 -4 20 3 11 7 20 9 20 2 0 4 -9 4 -20z
m4007 -337 c-3 -10 -5 -2 -5 17 0 19 2 27 5 18 2 -10 2 -26 0 -35z m109 -9 c7
-29 -1 -170 -12 -197 -5 -13 -1 -17 17 -18 23 0 23 -1 4 -9 -19 -8 -19 -9 3
-9 26 -1 29 14 5 29 -14 9 -14 10 -2 7 27 -8 39 7 55 69 9 32 18 66 21 74 7
25 44 -45 47 -92 6 -79 -10 -190 -28 -200 -9 -5 -16 -17 -16 -27 0 -13 -10
-20 -31 -25 -37 -7 -49 -1 -49 23 0 10 -9 21 -20 24 -27 7 -36 -29 -23 -94 6
-27 7 -49 4 -49 -3 0 -7 -21 -9 -47 -1 -26 -8 -56 -16 -68 -7 -11 -16 -40 -20
-64 -9 -60 -22 -81 -50 -81 -14 0 -30 -10 -40 -25 -20 -31 -51 -32 -67 -4 -13
26 -6 117 21 244 10 50 26 137 35 195 9 58 21 120 28 138 21 59 30 35 24 -63
-3 -52 -2 -97 3 -100 4 -3 15 7 25 21 11 18 23 24 36 21 10 -3 22 -1 25 4 3 5
0 9 -5 9 -6 0 -11 14 -11 30 0 17 3 30 8 30 4 0 3 56 -2 125 -7 96 -6 128 4
140 18 22 29 19 36 -11z m282 -271 c-4 -87 -15 -186 -31 -268 -14 -71 -28
-152 -32 -180 -3 -27 -13 -70 -22 -94 -15 -39 -18 -42 -30 -25 -7 10 -13 26
-13 36 0 10 -8 31 -17 45 -15 22 -18 48 -17 138 2 111 28 290 45 301 5 3 9 21
9 41 0 19 7 60 16 90 15 51 17 53 33 39 16 -15 19 -14 30 10 25 55 34 12 29
-133z m-258 -147 c0 -3 -4 -8 -10 -11 -5 -3 -10 -1 -10 4 0 6 5 11 10 11 6 0
10 -2 10 -4z m-1620 -163 c0 -14 -70 -64 -101 -73 -52 -15 -33 17 31 54 45 26
70 32 70 19z m1410 -419 c0 0 -7 -25 -16 -55 -27 -94 -81 -205 -158 -323 -28
-43 -50 -82 -48 -87 1 -5 -2 -9 -7 -9 -7 0 -35 -40 -161 -230 -9 -14 -22 -41
-30 -60 -7 -19 -17 -40 -21 -45 -4 -6 -22 -40 -40 -75 -43 -89 -91 -161 -170
-255 -70 -84 -122 -135 -139 -135 -5 0 -10 -3 -10 -7 0 -5 -11 -13 -25 -20
-23 -10 -26 -9 -31 13 -10 39 2 79 55 184 50 100 61 116 119 179 18 20 54 68
80 106 74 111 216 274 228 262 11 -10 -145 -225 -224 -311 -91 -98 -104 -116
-79 -116 16 0 184 173 223 230 48 70 206 337 249 420 21 41 49 95 62 119 13
24 23 57 23 72 0 63 56 148 96 145 13 0 24 -1 24 -2z m-4309 -856 c69 -43 86
-68 48 -68 -28 0 -58 16 -96 53 -30 28 -43 57 -27 57 4 0 37 -19 75 -42z
m4789 -327 c57 -29 106 -75 133 -126 18 -33 22 -56 21 -135 0 -55 -6 -105 -13
-118 -11 -22 -14 -22 -35 -9 -21 14 -48 9 -66 -12 -8 -9 -105 -41 -125 -41
-10 0 -55 18 -101 41 -76 38 -86 46 -126 108 -23 36 -45 75 -48 86 -3 11 -15
21 -25 23 -44 7 -45 9 -29 49 19 45 55 86 103 115 83 52 231 61 311 19z
m-6590 -61 c0 -5 -4 -10 -10 -10 -5 0 -10 5 -10 10 0 6 5 10 10 10 6 0 10 -4
10 -10z m-80 -516 c30 -9 107 -46 170 -83 150 -89 236 -132 400 -202 l135 -56
-1 -64 c0 -35 -4 -147 -9 -249 -8 -198 -14 -220 -62 -220 -17 0 -23 -6 -23
-22 -1 -22 -1 -22 -15 -4 -12 16 -27 18 -97 17 -220 -3 -497 -42 -506 -70 -5
-16 180 -9 417 15 147 14 207 17 182 7 -11 -4 -9 -8 7 -17 67 -36 -83 -53
-445 -52 l-182 1 -66 65 c-36 36 -76 80 -88 97 -29 43 -48 41 -83 -4 -28 -37
-29 -42 -29 -155 0 -64 -3 -114 -7 -110 -3 4 -14 79 -23 167 -22 204 -17 359
21 605 8 52 29 144 46 204 l32 109 51 23 c54 25 73 25 175 -2z m5995 -168 c72
-34 78 -39 57 -47 -14 -5 -64 -5 -124 2 -101 10 -175 5 -147 -11 8 -5 52 -15
98 -24 103 -20 183 -53 161 -66 -8 -5 -23 -10 -33 -10 -10 0 -60 -12 -110 -26
-140 -40 -150 -56 -49 -74 84 -15 165 -38 217 -60 40 -18 135 -88 103 -77 -10
3 -20 2 -23 -2 -6 -11 -184 -70 -254 -85 -79 -16 -76 -33 6 -41 115 -11 213
-26 251 -39 l37 -13 -92 -46 c-50 -26 -111 -49 -135 -53 -49 -7 -164 -29 -223
-44 -22 -5 -89 -12 -150 -16 -98 -5 -122 -3 -220 20 -226 54 -271 59 -505 49
-271 -10 -805 -11 -930 0 -240 20 -457 30 -432 20 6 -2 12 -11 12 -18 0 -16
-31 -22 -140 -28 -73 -5 -121 -2 -440 28 -131 11 -248 13 -565 8 -220 -3 -417
-3 -437 1 -29 5 -39 13 -44 32 -8 29 -32 44 -74 44 -37 0 -83 -28 -76 -46 3
-7 1 -16 -4 -19 -17 -10 -318 -6 -393 6 -112 17 -166 54 -167 111 0 15 -5 30
-11 34 -12 7 -4 100 11 138 7 17 9 14 9 -18 l1 -38 19 23 c19 24 20 24 248 24
125 0 369 -4 542 -9 219 -6 312 -6 308 1 -9 14 -69 22 -207 28 -63 3 -176 10
-250 16 -160 13 -508 15 -565 2 -62 -13 -97 -6 -93 19 3 21 3 21 563 23 833 3
2077 15 2525 25 320 7 418 13 515 29 198 33 252 47 420 106 88 31 216 72 285
91 69 18 154 42 190 53 48 15 87 19 150 17 74 -3 95 -8 165 -40z m211 -88 c85
-39 388 -200 407 -216 14 -13 17 -33 17 -134 0 -118 0 -118 -24 -118 -13 0
-75 -15 -137 -34 -142 -42 -258 -70 -265 -63 -3 2 10 14 29 26 18 11 41 29 51
40 18 19 17 21 -9 45 -14 13 -45 28 -68 31 -54 9 -98 31 -77 38 8 3 40 13 70
22 30 10 61 23 69 30 22 21 -37 69 -161 128 -59 29 -107 54 -108 57 0 3 65 4
145 2 97 -2 145 0 145 7 0 13 8 12 -125 20 -97 6 -107 8 -82 19 40 17 54 53
32 85 -16 25 -16 26 12 30 15 2 29 5 29 6 1 0 24 -9 50 -21z m-5130 -195 c-3
-21 -10 -60 -15 -88 -5 -27 -11 -70 -12 -95 l-2 -45 -10 58 c-6 40 -6 65 1 80
6 12 13 42 17 66 3 24 8 48 11 53 11 18 16 6 10 -29z m-56 -8 c0 -13 -5 -58
-11 -99 -9 -59 -14 -73 -26 -69 -12 5 -14 -1 -11 -28 l3 -34 -45 0 c-39 0 -46
3 -58 28 -8 16 -16 65 -19 108 -5 69 -4 79 11 79 13 0 16 -12 16 -76 0 -41 5
-84 10 -95 14 -26 42 -24 59 4 17 26 40 127 41 175 0 22 5 32 15 32 9 0 15 -9
15 -25z m5802 -104 c46 -16 117 -39 158 -51 41 -12 79 -26 84 -31 20 -19 -69
-43 -184 -50 -63 -4 -124 -10 -136 -14 -18 -6 -22 0 -32 45 -7 28 -12 69 -12
91 0 49 9 49 122 10z m-5775 -198 c-3 -10 -5 -4 -5 12 0 17 2 24 5 18 2 -7 2
-21 0 -30z m5571 -30 c-2 -12 -22 -23 -60 -33 -31 -8 -60 -18 -64 -22 -4 -5
-15 -8 -25 -8 -9 0 -19 -3 -21 -7 -7 -17 -67 -43 -85 -37 -13 4 -14 3 -5 -4
23 -16 -9 -21 -64 -10 -27 5 -85 13 -129 17 -75 7 -78 8 -51 19 15 7 67 17
115 22 47 5 145 25 216 44 155 40 178 43 173 19z m-2968 -58 c0 -8 -4 -15 -10
-15 -5 0 -10 7 -10 15 0 8 5 15 10 15 6 0 10 -7 10 -15z m-3010 -185 c0 -5 -2
-10 -4 -10 -3 0 -8 5 -11 10 -3 6 -1 10 4 10 6 0 11 -4 11 -10z m67 -82 c-3
-8 -6 -5 -6 6 -1 11 2 17 5 13 3 -3 4 -12 1 -19z m-985 -59 l-10 -34 -1 45
c-1 31 2 41 10 33 7 -7 7 -21 1 -44z m6442 26 c-7 -18 -25 -24 -49 -14 -19 7
-19 8 3 8 13 1 21 5 18 9 -2 4 4 8 14 9 12 1 17 -3 14 -12z m-6437 -97 c-3 -8
-6 -5 -6 6 -1 11 2 17 5 13 3 -3 4 -12 1 -19z m33 -69 c0 -6 -4 -7 -10 -4 -5
3 -10 11 -10 16 0 6 5 7 10 4 6 -3 10 -11 10 -16z m20 -38 c0 -4 -7 -8 -15 -8
-16 0 -20 9 -9 20 8 8 24 -1 24 -12z m35 -41 c3 -5 1 -10 -4 -10 -6 0 -11 5
-11 10 0 6 2 10 4 10 3 0 8 -4 11 -10z m35 -24 c0 -2 -9 -6 -20 -9 -11 -3 -20
-1 -20 4 0 5 9 9 20 9 11 0 20 -2 20 -4z m-13 -52 c-3 -3 -12 -4 -19 -1 -8 3
-5 6 6 6 11 1 17 -2 13 -5z m3547 -64 c26 -9 56 -56 56 -86 0 -25 -30 -54 -56
-54 -12 0 -50 12 -84 26 -59 26 -61 26 -75 8 -11 -15 -18 -17 -31 -8 -10 6
-20 16 -22 22 -5 15 59 54 76 47 9 -3 12 1 10 13 -8 36 65 55 126 32z m740
-36 c18 -7 22 -59 5 -70 -6 -3 -22 5 -36 18 -23 23 -23 26 -8 42 19 18 18 18
39 10z m-2314 -90 c24 -26 32 -67 17 -88 -7 -9 -28 -19 -48 -22 -30 -5 -40 -2
-67 26 -34 33 -39 58 -21 92 9 17 18 20 56 15 26 -3 53 -13 63 -23z m3505 -30
c8 -4 23 -20 31 -36 14 -26 14 -32 0 -53 -30 -46 -107 -50 -118 -7 -6 21 18
81 37 94 12 9 28 10 50 2z"/>
<path d="M5694 9030 c33 -10 85 -22 115 -26 31 -3 103 -15 160 -25 117 -21
215 -25 171 -8 -76 31 -233 57 -440 74 l-65 5 59 -20z"/>
<path d="M4470 8895 c-36 -8 -106 -35 -157 -60 -50 -25 -99 -45 -108 -45 -16
0 -32 -26 -22 -36 3 -3 13 -1 24 4 25 13 181 60 223 67 19 3 53 11 75 17 24 7
191 14 424 17 273 4 385 9 388 17 7 20 -62 25 -427 29 -286 4 -368 2 -420 -10z"/>
<path d="M3972 8804 c-193 -57 -309 -112 -297 -142 3 -7 5 -15 5 -17 0 -2 34
12 75 32 74 35 394 149 448 160 15 3 27 9 27 14 0 19 -83 4 -258 -47z"/>
<path d="M5844 8834 c-18 -15 -17 -15 15 -10 18 3 40 6 47 6 8 0 14 5 14 10 0
16 -54 12 -76 -6z"/>
<path d="M3335 8279 c-22 -12 -49 -28 -59 -35 -18 -12 -18 -14 -3 -20 10 -4
36 6 65 25 27 17 54 31 60 31 6 0 14 5 17 10 11 18 -39 11 -80 -11z"/>
<path d="M7357 8263 c168 -163 304 -317 377 -428 29 -44 86 -119 127 -166 41
-47 91 -106 112 -130 l37 -44 -29 50 c-113 190 -437 588 -578 711 -197 172
-219 175 -46 7z"/>
<path d="M6977 8324 c-3 -4 18 -34 46 -68 29 -34 64 -77 78 -96 32 -42 49 -33
27 13 -29 60 -135 167 -151 151z"/>
<path d="M7178 8034 c-15 -14 26 -67 141 -186 95 -98 122 -120 132 -111 10 10
-8 33 -88 112 -55 55 -118 121 -139 146 -22 26 -42 43 -46 39z"/>
<path d="M7630 7624 c0 -4 25 -45 55 -93 55 -87 88 -163 130 -301 24 -76 116
-333 160 -447 38 -98 86 -193 96 -193 16 0 10 28 -25 112 -19 46 -51 133 -71
193 -20 61 -55 157 -77 215 -22 58 -53 150 -70 204 -16 54 -38 117 -49 139
-33 63 -119 177 -135 177 -8 0 -14 -3 -14 -6z"/>
<path d="M8208 6995 c-3 -3 8 -58 23 -123 16 -64 38 -169 49 -232 12 -63 32
-141 46 -175 14 -33 34 -86 46 -117 12 -37 25 -58 35 -58 26 0 10 101 -32 210
-20 52 -52 156 -71 230 -53 210 -79 281 -96 265z"/>
<path d="M8234 6309 c-10 -17 13 -36 27 -22 12 12 4 33 -11 33 -5 0 -12 -5
-16 -11z"/>
<path d="M3964 7545 c-83 -23 -155 -59 -239 -122 -88 -65 -125 -105 -157 -167
-11 -22 -25 -44 -31 -48 -7 -4 -6 -12 2 -22 20 -24 28 -20 49 27 54 118 279
274 438 303 80 14 102 44 32 43 -24 0 -66 -6 -94 -14z"/>
<path d="M4106 7365 c-49 -14 -75 -30 -64 -40 8 -8 158 38 158 48 0 10 -38 7
-94 -8z"/>
<path d="M6020 7306 c0 -21 9 -25 76 -32 69 -8 65 5 -10 30 -61 20 -66 20 -66
2z"/>
<path d="M4562 7199 c11 -33 60 -44 231 -47 181 -4 237 1 237 23 0 10 -40 14
-202 18 -112 3 -218 9 -237 12 -26 6 -33 5 -29 -6z"/>
<path d="M5714 7149 c-5 -8 4 -22 24 -39 83 -69 361 -105 465 -61 78 34 78 66
0 35 -106 -42 -392 -4 -464 62 -13 12 -19 13 -25 3z"/>
<path d="M6773 7140 c42 -105 77 -172 82 -158 8 21 -40 131 -68 155 -15 13
-19 14 -14 3z"/>
<path d="M6296 7082 c-3 -6 -1 -14 5 -17 15 -10 25 3 12 16 -7 7 -13 7 -17 1z"/>
<path d="M3635 7060 c-85 -46 -105 -68 -105 -111 0 -28 4 -38 12 -33 8 5 9 0
4 -17 -16 -51 -17 -65 -7 -92 11 -28 31 -37 31 -14 0 15 55 70 88 86 28 15 42
7 42 -22 0 -17 -12 -26 -53 -42 -28 -11 -50 -24 -47 -30 7 -14 58 -11 97 6 40
16 51 7 33 -27 -21 -39 -92 -76 -137 -72 -35 3 -38 1 -39 -24 -1 -15 3 -25 8
-22 4 3 14 -8 21 -24 6 -16 17 -27 24 -25 6 2 14 -1 18 -6 22 -37 145 30 137
74 -2 11 -1 17 3 13 12 -11 38 21 31 38 -3 8 -2 13 3 10 5 -3 15 16 22 42 17
58 14 190 -5 236 -28 68 -111 93 -181 56z"/>
<path d="M3517 7045 c-10 -14 -22 -24 -28 -22 -5 1 -23 -21 -39 -50 -22 -40
-29 -67 -32 -120 -2 -55 0 -68 12 -68 10 0 18 21 26 72 15 88 45 158 82 189
17 16 22 24 12 24 -8 0 -23 -12 -33 -25z"/>
<path d="M3952 6652 c-28 -9 -62 -64 -62 -102 0 -28 3 -30 35 -30 45 0 105 50
105 89 0 45 -23 58 -78 43z m43 -22 c3 -5 -1 -23 -10 -40 -11 -21 -23 -30 -40
-30 -34 0 -33 32 1 59 30 23 40 26 49 11z"/>
<path d="M3430 6459 c0 -91 10 -98 47 -34 l21 38 -21 33 c-38 59 -47 52 -47
-37z"/>
<path d="M3996 5447 c-5 -9 -5 -29 0 -45 7 -25 8 -26 11 -4 3 12 3 32 0 45 -3
19 -4 20 -11 4z"/>
<path d="M3750 5438 c0 -7 7 -32 15 -55 9 -27 18 -119 24 -265 15 -329 55
-574 130 -787 43 -120 47 -129 58 -117 4 4 -7 48 -25 99 -69 197 -106 454
-131 899 -7 124 -13 166 -28 195 -20 38 -43 55 -43 31z"/>
<path d="M4003 5200 c0 -47 2 -66 4 -42 2 23 2 61 0 85 -2 23 -4 4 -4 -43z"/>
<path d="M4080 5230 c0 -13 -7 -20 -20 -20 -16 0 -20 -7 -20 -36 0 -19 5 -44
10 -55 6 -11 7 -25 3 -32 -15 -23 -14 -87 1 -87 8 0 17 6 20 13 6 12 1 -95 -5
-123 -3 -9 3 -15 16 -15 27 0 32 31 33 200 1 102 -2 145 -12 158 -17 22 -26
22 -26 -3z"/>
<path d="M4154 4628 c8 -38 10 -44 30 -118 9 -30 16 -65 16 -77 0 -15 6 -23
16 -23 14 0 16 8 11 53 -8 81 -46 197 -64 197 -12 0 -14 -7 -9 -32z"/>
<path d="M3535 4573 c8 -73 28 -133 44 -133 14 0 14 16 -3 97 -18 83 -25 103
-38 103 -7 0 -8 -24 -3 -67z"/>
<path d="M6020 4275 c-58 -7 -217 -25 -355 -39 -223 -23 -295 -33 -505 -65
l-55 -9 62 -1 c77 -1 314 20 658 59 330 38 335 39 335 56 0 16 2 16 -140 -1z"/>
<path d="M3720 4137 c0 -6 29 -62 65 -122 59 -99 101 -203 120 -292 7 -37 22
-50 37 -35 8 8 2 40 -20 110 -34 106 -65 169 -137 281 -44 67 -65 87 -65 58z"/>
<path d="M4962 4121 c-120 -9 -103 -26 26 -26 113 0 182 10 182 25 0 10 -65
10 -208 1z"/>
<path d="M6830 4115 c0 -8 3 -15 8 -15 7 0 64 -44 148 -114 28 -24 44 -32 51
-25 7 7 13 -4 17 -35 7 -43 26 -61 40 -37 16 25 -50 189 -89 221 -16 13 -16
13 -20 -45 -2 -27 -17 -22 -79 25 -56 43 -76 49 -76 25z"/>
<path d="M3964 4015 c-9 -38 4 -75 41 -112 26 -26 41 -33 72 -33 41 0 63 14
63 39 0 12 -3 12 -12 3 -45 -45 -158 36 -145 103 6 33 -11 32 -19 0z"/>
<path d="M5702 3919 c-46 -18 -297 -39 -470 -39 -98 0 -193 -4 -212 -9 -19 -5
-57 -12 -83 -16 -72 -10 -55 -30 24 -29 366 6 571 22 734 55 78 16 79 17 65
34 -14 17 -25 18 -58 4z"/>
<path d="M4462 3754 c-44 -30 -23 -108 38 -139 65 -34 198 -6 201 42 4 54 -20
77 -69 68 -24 -4 -48 1 -89 19 -30 15 -56 26 -57 26 -1 0 -12 -7 -24 -16z m91
-34 c31 -11 75 -20 97 -20 37 0 41 -2 38 -22 -6 -47 -153 -64 -198 -23 -26 24
-27 85 0 85 3 0 31 -9 63 -20z"/>
<path d="M6660 3669 c-69 -36 -127 -53 -265 -79 -60 -11 -155 -30 -210 -42
-55 -11 -113 -22 -130 -24 -47 -6 -66 -15 -62 -27 6 -20 71 -19 155 2 44 12
100 21 124 21 45 0 248 46 328 75 85 30 183 107 132 104 -9 0 -42 -14 -72 -30z"/>
<path d="M5263 3533 c-29 -3 -43 -9 -43 -19 0 -16 -3 -15 65 -18 29 -1 73 -12
105 -27 l55 -26 -45 -6 c-184 -25 -382 -38 -454 -31 -45 5 -85 8 -91 9 -5 0
-11 -7 -13 -17 -5 -24 116 -33 303 -23 83 5 166 9 185 9 19 1 40 4 46 8 6 4
23 12 37 17 22 9 30 7 47 -11 18 -20 20 -20 26 -3 5 12 1 24 -13 35 -12 9 -23
28 -25 41 -6 43 -90 72 -185 62z"/>
<path d="M4752 5933 c-20 -2 -32 -9 -29 -16 2 -8 49 -14 143 -18 228 -11 386
-10 379 1 -4 6 -53 8 -131 4 -106 -5 -128 -3 -137 10 -13 16 -159 29 -225 19z"/>
<path d="M4506 5775 c4 -8 8 -15 10 -15 2 0 4 7 4 15 0 8 -4 15 -10 15 -5 0
-7 -7 -4 -15z"/>
<path d="M6300 5756 c0 -21 23 -26 128 -26 140 0 271 -39 394 -117 41 -27 47
-5 8 29 -50 41 -163 93 -247 112 -93 21 -283 22 -283 2z"/>
<path d="M4724 5707 c-8 -4 -14 -12 -14 -17 0 -14 507 -13 515 1 4 6 5 12 4
14 -8 7 -492 9 -505 2z"/>
<path d="M5876 5711 c-10 -15 4 -18 104 -25 72 -5 96 -11 154 -41 38 -20 70
-34 72 -32 13 13 -15 37 -72 66 -55 28 -80 34 -158 38 -65 4 -95 2 -100 -6z"/>
<path d="M6924 5485 c21 -16 32 -13 21 4 -3 6 -14 11 -23 11 -15 -1 -15 -2 2
-15z"/>
<path d="M6903 5411 c-3 -12 -15 -21 -32 -23 l-26 -3 24 -14 c17 -9 25 -10 31
-2 4 7 11 3 18 -13 22 -50 24 -97 7 -187 -10 -49 -15 -92 -12 -95 12 -12 26 8
47 64 38 100 16 266 -38 287 -8 3 -16 -3 -19 -14z"/>
<path d="M6657 5323 c-31 -20 -54 -40 -51 -45 3 -4 0 -25 -6 -47 -14 -54 -2
-118 29 -153 34 -38 98 -53 143 -34 l33 13 -25 11 c-14 5 -40 16 -58 22 -18 7
-37 21 -43 31 -9 18 -5 19 56 19 51 0 65 3 65 15 0 17 -50 45 -80 45 -28 0
-25 18 4 26 28 7 64 -2 87 -22 27 -24 61 -11 75 27 23 63 19 76 -36 104 -73
37 -124 34 -193 -12z"/>
<path d="M6206 5324 c-3 -9 -6 -18 -6 -20 0 -9 49 -3 55 6 3 6 19 10 36 10 16
0 29 5 29 10 0 6 -24 10 -54 10 -40 0 -55 -4 -60 -16z"/>
<path d="M5085 5305 c-5 -1 -43 -9 -84 -16 -69 -12 -124 -39 -109 -54 3 -4 50
3 105 16 58 13 138 23 195 24 99 1 125 8 98 25 -14 9 -181 13 -205 5z"/>
<path d="M6835 5032 c-38 -21 -67 -28 -127 -31 -43 -2 -78 -7 -78 -12 0 -28
110 -39 182 -17 24 7 50 25 64 43 40 53 33 56 -41 17z"/>
<path d="M6120 4935 c0 -12 7 -14 28 -9 61 15 68 23 20 23 -37 1 -48 -3 -48
-14z"/>
<path d="M8290 5140 c0 -11 7 -20 15 -20 8 0 15 9 15 20 0 11 -7 20 -15 20 -8
0 -15 -9 -15 -20z"/>
<path d="M8410 5135 c0 -8 5 -15 10 -15 6 0 10 7 10 15 0 8 -4 15 -10 15 -5 0
-10 -7 -10 -15z"/>
<path d="M8200 4786 c0 -16 18 -31 27 -22 3 3 -2 12 -11 21 -14 14 -16 14 -16
1z"/>
<path d="M1896 2522 c5 -5 65 -35 134 -67 375 -175 505 -235 512 -235 4 0 8 9
8 20 0 20 1 19 -285 153 -169 79 -409 163 -369 129z"/>
<path d="M1905 2340 c-8 -12 -2 -15 182 -81 390 -139 433 -153 446 -140 17 17
3 24 -148 72 -71 23 -184 61 -250 84 -163 58 -224 75 -230 65z"/>
<path d="M2122 2149 c2 -7 33 -20 68 -29 36 -10 70 -19 75 -21 6 -2 12 0 15 6
6 11 -102 53 -138 54 -14 1 -22 -4 -20 -10z"/>
<path d="M1722 2130 c4 -14 53 -26 383 -94 94 -19 215 -46 270 -58 102 -24
149 -25 142 -5 -6 20 -173 66 -402 113 -243 49 -401 66 -393 44z"/>
<path d="M1852 1889 c3 -10 42 -17 149 -26 79 -6 200 -16 269 -22 69 -7 145
-13 171 -16 50 -4 80 8 63 25 -14 14 -276 40 -483 47 -147 5 -173 4 -169 -8z"/>
<path d="M4980 2116 c0 -13 13 -16 81 -16 45 0 233 -7 418 -16 409 -20 828 -9
818 20 -3 8 -111 11 -363 11 -197 1 -493 5 -656 9 -273 8 -298 8 -298 -8z"/>
<path d="M3256 2075 c-51 -14 -74 -29 -59 -38 5 -3 44 1 88 10 50 9 108 13
155 10 87 -6 106 -2 89 19 -15 18 -204 18 -273 -1z"/>
<path d="M7545 2013 c-41 -5 -449 -43 -510 -47 -50 -4 -71 -21 -40 -32 34 -14
604 42 622 60 3 2 2 9 -2 15 -6 11 -13 11 -70 4z"/>
<path d="M3192 1970 c14 -43 298 -71 298 -30 0 6 -28 10 -62 10 -63 0 -158 12
-212 25 -21 6 -28 5 -24 -5z"/>
<path d="M5212 1873 c7 -9 7 -13 -1 -13 -6 0 -11 -5 -11 -11 0 -7 11 -9 26 -6
29 5 20 -9 -11 -16 -15 -4 -14 -5 7 -6 15 0 34 7 44 17 17 16 16 17 -12 22
-17 3 4 7 51 10 l80 6 -92 4 c-72 4 -89 2 -81 -7z"/>
<path d="M8200 2181 c0 -18 332 -112 346 -98 18 18 -30 38 -146 61 -69 13
-138 29 -153 35 -34 13 -47 14 -47 2z"/>
<path d="M8250 1990 c0 -5 25 -10 55 -10 30 0 55 5 55 10 0 6 -25 10 -55 10
-30 0 -55 -4 -55 -10z"/>
<path d="M2151 8804 c-77 -66 -125 -217 -107 -338 6 -35 17 -57 45 -86 34 -35
44 -41 94 -45 36 -3 57 -1 57 6 0 6 5 7 10 4 17 -11 77 58 89 101 6 21 20 57
31 79 22 43 26 117 9 162 -16 42 -81 123 -111 139 -43 22 -71 17 -117 -22z
m135 -36 c15 -18 33 -47 41 -65 15 -38 18 -129 3 -138 -6 -4 -10 6 -10 22 0
27 -2 29 -33 25 -26 -3 -42 3 -76 32 -24 20 -46 36 -51 36 -4 0 -11 12 -15 27
-5 23 -1 33 29 60 46 42 76 42 112 1z"/>
<path d="M2757 8713 c-7 -16 -19 -28 -27 -28 -8 0 -23 -17 -34 -38 -18 -38
-18 -39 1 -65 50 -67 78 -55 109 48 16 53 20 79 13 92 -15 27 -48 22 -62 -9z"/>
<path d="M8699 7701 c-22 -23 -29 -39 -29 -69 0 -26 -6 -45 -20 -57 -24 -21
-44 -90 -34 -114 4 -9 8 -22 10 -30 1 -8 15 -27 31 -43 31 -31 98 -44 124 -24
31 24 66 101 60 134 -1 7 6 25 17 40 29 42 33 61 18 96 -17 41 -86 96 -121 96
-16 0 -38 -11 -56 -29z m114 -53 c41 -43 34 -72 -19 -76 -47 -3 -63 10 -69 59
-8 65 35 74 88 17z"/>
<path d="M8990 6823 c-24 -9 -61 -46 -77 -78 -9 -16 -24 -36 -34 -43 -34 -23
-52 -116 -45 -226 4 -55 13 -114 21 -131 33 -81 126 -87 213 -13 18 15 32 30
32 34 0 4 9 18 21 30 27 28 68 178 76 276 7 94 -6 132 -49 147 -32 11 -132 14
-158 4z m144 -49 c9 -8 16 -30 16 -49 0 -25 -7 -38 -32 -57 -18 -14 -44 -28
-58 -32 -19 -6 -21 -5 -10 3 8 6 13 11 10 12 -57 10 -67 16 -89 57 -11 20 -8
26 18 52 25 25 37 30 80 30 32 0 55 -6 65 -16z"/>
<path d="M9023 5909 c-19 -7 -23 -16 -23 -49 0 -22 -5 -49 -12 -60 -17 -26 15
-62 51 -58 21 2 27 10 32 41 3 21 11 43 18 50 37 37 -13 96 -66 76z m47 -38
c0 -5 -7 -11 -15 -15 -9 -3 -15 0 -15 9 0 8 7 15 15 15 8 0 15 -4 15 -9z"/>
<path d="M9017 5013 c-6 -16 -18 -34 -25 -42 -7 -7 -11 -20 -8 -28 3 -8 6 -18
6 -22 0 -11 47 -31 70 -31 11 0 20 7 20 15 0 8 4 15 10 15 5 0 7 7 4 15 -4 8
-1 15 5 15 5 0 15 9 21 21 18 33 -11 69 -55 69 -29 0 -38 -5 -48 -27z m67 -18
c4 -10 -1 -15 -14 -15 -20 0 -26 11 -13 23 10 11 20 8 27 -8z"/>
<path d="M1265 4840 c-27 -10 -41 -28 -49 -64 -4 -16 -18 -38 -32 -48 -14 -11
-29 -38 -35 -64 -6 -24 -15 -47 -20 -50 -16 -10 -10 -124 8 -154 24 -41 53
-53 118 -48 95 8 155 71 155 165 0 33 6 63 17 79 19 30 21 100 4 142 -19 45
-105 67 -166 42z m103 -52 c16 -16 16 -80 0 -96 -21 -21 -55 -13 -82 18 -25
30 -25 49 -3 78 12 15 69 16 85 0z"/>
<path d="M9040 4624 c-27 -15 -59 -45 -79 -74 -18 -27 -41 -57 -51 -67 -39
-42 -80 -162 -80 -234 0 -74 26 -145 70 -187 102 -100 310 -89 352 18 18 43
37 134 38 171 0 25 8 43 25 59 37 35 58 100 53 162 -5 47 -10 56 -54 96 -70
62 -114 82 -176 82 -38 0 -66 -8 -98 -26z m207 -60 c70 -48 78 -63 63 -125
-12 -50 -24 -58 -58 -40 -9 5 -52 6 -94 2 -74 -6 -78 -5 -109 21 -26 23 -30
33 -26 56 3 16 1 34 -4 39 -21 21 25 72 76 86 43 12 98 -2 152 -39z"/>
<path d="M953 4355 c-13 -9 -27 -34 -33 -55 -6 -22 -15 -40 -20 -40 -14 0 -37
-49 -45 -97 -8 -50 -17 -58 -70 -67 -85 -15 -105 -26 -126 -71 -12 -24 -18
-50 -14 -57 4 -7 0 -5 -9 5 -14 18 -16 16 -40 -32 -14 -28 -26 -61 -26 -75 0
-41 44 -82 119 -111 66 -25 70 -28 76 -63 3 -20 28 -75 54 -121 45 -80 50 -85
94 -96 40 -10 51 -10 74 5 40 25 66 57 57 71 -4 7 -3 10 4 5 6 -3 20 3 30 15
18 19 27 20 87 14 78 -9 137 6 154 39 28 57 37 95 34 138 -3 37 1 55 21 87 14
22 31 60 38 84 12 45 4 102 -12 92 -16 -10 -12 39 6 74 13 26 14 38 6 57 -16
33 -48 38 -147 24 -100 -14 -97 -16 -150 73 -70 114 -109 139 -162 102z m82
-82 c11 -17 37 -59 58 -93 l38 -62 104 7 c87 6 105 5 105 -7 0 -21 -48 -61
-97 -83 -28 -12 -40 -22 -35 -29 16 -21 95 -246 89 -253 -12 -11 -35 17 -98
117 -34 54 -67 101 -75 104 -14 5 -39 -25 -66 -79 -60 -120 -99 -184 -104
-172 -6 17 56 180 76 197 7 6 30 58 30 68 0 10 -22 12 -172 15 -69 1 -129 5
-133 9 -6 6 77 34 157 53 40 10 48 26 59 107 20 155 24 162 64 101z m-125
-753 c0 -4 -6 -10 -12 -13 -16 -5 -39 3 -34 12 7 10 46 11 46 1z"/>
<path d="M8654 3865 c-52 -54 -74 -98 -74 -150 0 -49 38 -131 67 -144 32 -15
90 -14 100 2 13 20 33 81 33 102 0 11 9 26 20 32 30 20 51 70 48 115 -4 51
-36 78 -102 85 -45 6 -48 4 -92 -42z m141 -29 c30 -45 -20 -97 -69 -75 -29 14
-40 40 -32 75 5 20 12 24 46 24 31 0 43 -5 55 -24z m-48 -222 c-3 -3 -12 -4
-19 -1 -8 3 -5 6 6 6 11 1 17 -2 13 -5z"/>
<path d="M1325 3256 c-18 -27 -11 -56 14 -56 14 0 14 -2 1 -10 -13 -8 -13 -10
1 -10 9 0 22 12 30 28 7 15 15 30 17 33 4 8 -26 39 -38 39 -5 0 -16 -11 -25
-24z"/>
<path d="M1181 2823 c-19 -10 -48 -39 -66 -67 -18 -28 -54 -70 -79 -92 -27
-25 -46 -51 -46 -63 0 -41 29 -90 69 -116 49 -33 124 -36 172 -8 33 20 89 113
89 150 0 13 7 34 15 47 13 20 13 28 0 72 -19 63 -25 71 -58 83 -38 15 -56 14
-96 -6z m109 -52 c17 -33 12 -69 -14 -86 -25 -17 -85 -23 -104 -11 -23 14 -8
88 22 108 6 4 28 8 48 8 27 0 40 -5 48 -19z"/>
<path d="M8935 2660 c-12 -4 -33 -26 -47 -47 -41 -63 -19 -118 53 -129 31 -5
37 -2 67 37 66 87 19 177 -73 139z m70 -41 c11 -16 -4 -59 -20 -59 -15 0 -45
37 -45 57 0 16 56 18 65 2z"/>
</g>
</svg>
